<?xml version="1.0" encoding="UTF-8"?><svg id="_レイヤー_1" xmlns="http://www.w3.org/2000/svg" width="144.73" height="46.81" xmlns:xlink="http://www.w3.org/1999/xlink" viewBox="0 0 144.73 46.81"><defs><style>.cls-1{fill:none;}.cls-2{clip-path:url(#clippath);}.cls-3{fill:#fff;}.cls-4{fill:#263921;}</style><clipPath id="clippath"><rect class="cls-1" width="144.73" height="46.81"/></clipPath></defs><g id="_グループ_685"><g class="cls-2"><g id="_グループ_684"><path id="_パス_1530" class="cls-4" d="M50.65,5.31c4.26-3.91,10.81-3.9,15.07,.02,2.26,2.24,3.46,5.33,3.32,8.5,.15,3.22-1.1,6.35-3.43,8.58-2.01,1.88-4.67,2.91-7.43,2.85-2.91,.08-5.71-1.06-7.74-3.16-2.11-2.22-3.24-5.2-3.12-8.27-.14-3.18,1.07-6.27,3.33-8.51m2.48,16.24c1.2,1.58,3.07,2.51,5.06,2.5,1.96,0,3.8-.9,5.01-2.43,1.39-1.62,2.08-4.22,2.08-7.79,0-3.61-.7-6.23-2.11-7.83-1.21-1.52-3.05-2.4-4.99-2.41-1.98,0-3.85,.92-5.05,2.5-1.38,1.67-2.07,4.25-2.07,7.74,0,3.48,.69,6.06,2.06,7.73"/><path id="_パス_1531" class="cls-4" d="M78.69,9.86v1.16h-3.3l-.03,9.32c-.02,.63,.05,1.25,.21,1.86,.18,.69,.81,1.15,1.52,1.12,.36,0,.71-.09,1.01-.27,.36-.25,.69-.54,.98-.87l.42,.36-.36,.49c-.46,.66-1.07,1.21-1.78,1.6-.56,.3-1.18,.46-1.81,.47-1.15,.08-2.21-.61-2.59-1.7-.28-.82-.41-1.69-.37-2.56V11.02h-1.76s-.09-.06-.12-.1c-.03-.04-.04-.08-.04-.13,0-.09,.02-.18,.07-.25,.14-.15,.3-.28,.46-.41,.58-.46,1.11-.96,1.61-1.5,.33-.38,1.1-1.39,2.32-3.03,.09,0,.17,0,.25,.03,.03,.02,.04,.1,.04,.24v3.98h3.27Z"/><path id="_パス_1532" class="cls-4" d="M79.76,24.32c.64-.02,1.25-.25,1.74-.66,.36-.69,.5-1.48,.41-2.26V5.88c.03-.46-.05-.91-.24-1.34-.16-.29-.54-.43-1.14-.43-.12,0-.23,0-.35,.02-.11,.02-.24,.03-.38,.06v-.58c.47-.14,1.06-.31,1.76-.51s1.18-.34,1.45-.43l1.55-.49,.03,.11V12.23c.53-.64,1.14-1.22,1.81-1.72,.9-.63,1.97-.97,3.07-.97,1.54-.13,2.99,.76,3.58,2.2,.38,.97,.56,2.01,.52,3.06v6.6c-.08,.77,.06,1.54,.4,2.23,.44,.42,1.02,.67,1.63,.68v.45h-7.01v-.45c.66-.02,1.3-.25,1.81-.66,.35-.69,.49-1.48,.4-2.25v-6.55c.04-.88-.14-1.75-.53-2.54-.41-.68-1.19-1.06-1.98-.97-.89,.02-1.75,.34-2.44,.91-.79,.6-1.18,1-1.18,1.18v7.98c-.1,.78,.05,1.57,.42,2.26,.52,.4,1.15,.62,1.8,.65v.45h-7.14v-.45Z"/><path id="_パス_1533" class="cls-4" d="M107.62,11.18c1.19,1.17,1.82,2.8,1.71,4.47h-10.28c.11,2.5,.67,4.32,1.7,5.46,.9,1.08,2.23,1.71,3.64,1.71,1.03,.03,2.04-.28,2.87-.89,.87-.7,1.6-1.55,2.15-2.52l.57,.19c-.5,1.46-1.35,2.77-2.48,3.81-1.19,1.16-2.8,1.79-4.46,1.75-1.86,.08-3.63-.78-4.7-2.3-1.11-1.54-1.69-3.4-1.66-5.29-.04-2.04,.64-4.03,1.93-5.62,1.2-1.54,3.06-2.41,5.02-2.36,1.49-.01,2.92,.55,4,1.58m-7.75,1.24c-.38,.68-.63,1.43-.74,2.2h6.83c-.05-.84-.26-1.65-.62-2.41-.53-.95-1.57-1.51-2.65-1.42-1.17-.03-2.26,.6-2.82,1.63"/><path id="_パス_1534" class="cls-4" d="M111.42,24.32c.72,0,1.43-.22,2.04-.61,.42-.5,.61-1.15,.53-1.8V6.1c.03-.5-.03-1-.18-1.47-.25-.48-.77-.75-1.31-.68-.17,0-.33,.02-.49,.05-.18,.03-.4,.08-.67,.15v-.53c1.46-.39,3.21-.91,5.26-1.55,.07,0,.13,.04,.14,.1,.02,.14,.03,.28,.02,.42V21.98c-.09,.65,.09,1.3,.49,1.82,.61,.36,1.3,.54,2.01,.53v.45h-7.83v-.45Z"/><path id="_パス_1535" class="cls-4" d="M120.63,24.32c.72,0,1.43-.22,2.04-.61,.42-.5,.61-1.15,.53-1.8V6.1c.03-.5-.03-1-.18-1.47-.25-.48-.77-.75-1.31-.68-.17,0-.33,.02-.49,.05-.18,.03-.4,.08-.67,.15v-.53c1.46-.39,3.21-.91,5.26-1.55,.07,0,.13,.04,.14,.1,.02,.14,.03,.28,.02,.42V21.98c-.09,.65,.09,1.3,.49,1.82,.61,.36,1.3,.54,2.01,.53v.45h-7.83v-.45Z"/><path id="_パス_1536" class="cls-4" d="M132.05,11.82c1.35-1.48,3.27-2.29,5.27-2.23,1.98-.06,3.9,.7,5.31,2.1,1.44,1.5,2.2,3.52,2.1,5.6,.03,2.05-.69,4.05-2.04,5.6-1.3,1.56-3.25,2.44-5.28,2.38-2,.03-3.92-.8-5.26-2.28-1.45-1.55-2.22-3.61-2.15-5.73-.05-2.01,.68-3.96,2.05-5.44m2.58-.41c-1.08,.98-1.62,2.68-1.62,5.08-.01,1.87,.44,3.72,1.3,5.37,.6,1.48,2.03,2.46,3.62,2.49,1.17,.02,2.26-.62,2.8-1.67,.71-1.34,1.05-2.85,.98-4.37,0-1.83-.42-3.64-1.25-5.27-.59-1.49-2.02-2.47-3.62-2.48-.82-.01-1.61,.29-2.22,.84"/><path id="_パス_1537" class="cls-4" d="M47.7,42.48c.36,0,.72-.1,1.03-.3,.18-.34,.25-.73,.2-1.12v-6.05c.04-.34-.04-.68-.22-.97-.29-.2-.65-.3-1-.28v-.26h7.43l.05,2h-.39c0-.46-.2-.9-.54-1.21-.49-.21-1.03-.3-1.56-.25h-1.91c-.13-.02-.26,.02-.36,.1-.06,.11-.09,.24-.08,.38v3.11h2.02c.4,.05,.8-.04,1.14-.26,.22-.32,.36-.69,.4-1.07h.33v3.22h-.33c-.04-.39-.18-.75-.4-1.07-.33-.22-.73-.32-1.13-.26h-2.03v3.05c-.05,.34,.04,.69,.23,.98,.31,.19,.66,.28,1.03,.27v.26h-3.9v-.26Z"/><path id="_パス_1538" class="cls-4" d="M55.57,42.55c.32,0,.64-.08,.92-.25,.13-.12,.19-.45,.19-.98v-3.25c.01-.21-.01-.41-.06-.61-.06-.18-.24-.3-.43-.28-.05,0-.1,0-.15,.01-.05,0-.18,.04-.41,.11v-.21l.29-.1c.8-.26,1.35-.45,1.66-.59,.08-.04,.16-.07,.25-.08,0,.03,.01,.07,.01,.1v4.89c-.04,.34,.02,.68,.19,.97,.25,.17,.55,.26,.85,.25v.19h-3.31v-.19Zm1.08-9.11c.13-.14,.31-.21,.5-.21,.39,0,.71,.32,.71,.71,0,0,0,0,0,0,0,.19-.07,.37-.21,.5-.27,.28-.72,.28-1,0-.14-.13-.21-.32-.21-.51,0-.19,.07-.37,.2-.5"/><path id="_パス_1539" class="cls-4" d="M59.43,42.55c.24-.01,.48-.09,.68-.24,.16-.24,.23-.52,.19-.81v-3.46c.01-.21-.02-.41-.08-.61-.11-.18-.32-.28-.53-.26-.04,0-.08,0-.13,0-.04,0-.1,.01-.16,.02v-.24c.19-.05,.63-.2,1.32-.42l.64-.21s.05,.01,.06,.03c0,.03,.01,.07,.01,.1v1c.3-.3,.63-.56,.98-.8,.33-.21,.71-.33,1.1-.33,.3,0,.6,.09,.84,.26,.54,.45,.81,1.15,.73,1.85v3.18c-.02,.25,.05,.5,.2,.71,.18,.16,.42,.25,.66,.22v.19h-2.91v-.19c.26-.01,.5-.11,.69-.28,.17-.27,.24-.59,.2-.9v-2.92c.01-.34-.06-.67-.22-.97-.17-.27-.48-.42-.8-.38-.29,0-.57,.1-.81,.27-.21,.15-.42,.33-.6,.52v3.81c-.03,.24,.05,.48,.22,.66,.21,.13,.45,.19,.69,.18v.19h-2.98v-.19Z"/><path id="_パス_1540" class="cls-4" d="M67.65,39.74c.8-.45,1.63-.82,2.5-1.11v-.58c.02-.33-.02-.66-.14-.97-.2-.33-.58-.51-.96-.46-.23,0-.46,.06-.66,.18-.19,.09-.31,.29-.31,.5,0,.09,.02,.18,.03,.28,.02,.08,.03,.17,.03,.25,.02,.21-.08,.42-.25,.53-.1,.06-.22,.09-.34,.09-.18,.01-.35-.06-.47-.2-.11-.12-.16-.28-.16-.45,.04-.4,.26-.77,.59-1,.49-.38,1.11-.57,1.73-.52,.71-.08,1.41,.25,1.79,.86,.19,.43,.28,.9,.25,1.37v2.73c0,.18,0,.37,.05,.54,.04,.17,.2,.28,.37,.26,.09,0,.18-.01,.26-.05,.12-.07,.24-.15,.35-.23v.35c-.13,.17-.29,.31-.47,.44-.23,.16-.5,.25-.78,.26-.26,.02-.51-.09-.67-.3-.14-.21-.22-.46-.23-.72-.28,.25-.57,.47-.89,.67-.35,.23-.76,.35-1.18,.37-.38,0-.75-.14-1.01-.41-.28-.27-.44-.65-.43-1.04,.01-.69,.39-1.31,.99-1.65m2.5-.77c-.45,.14-.89,.33-1.29,.57-.55,.25-.92,.77-.98,1.38-.03,.35,.13,.7,.41,.91,.17,.13,.38,.19,.59,.19,.31,0,.6-.09,.86-.25,.25-.12,.4-.37,.41-.64v-2.16Z"/><path id="_パス_1541" class="cls-4" d="M72.59,42.55c.24-.01,.48-.1,.68-.24,.16-.24,.23-.52,.19-.81v-3.46c.01-.21-.02-.41-.08-.61-.11-.18-.32-.28-.53-.26-.04,0-.08,0-.13,0-.04,0-.1,.01-.16,.02v-.24c.19-.05,.63-.2,1.32-.42l.64-.21s.05,.01,.06,.03c0,.03,.01,.07,.01,.1v1c.3-.3,.63-.56,.98-.8,.33-.21,.71-.33,1.1-.33,.3,0,.6,.09,.84,.26,.54,.45,.81,1.15,.73,1.85v3.18c-.02,.25,.05,.5,.2,.71,.18,.16,.42,.25,.66,.22v.19h-2.91v-.19c.26-.01,.5-.11,.69-.28,.17-.27,.24-.59,.2-.9v-2.92c.01-.34-.06-.67-.22-.97-.17-.27-.48-.42-.8-.38-.29,0-.57,.1-.81,.27-.21,.15-.42,.33-.6,.52v3.81c-.03,.24,.05,.48,.22,.66,.21,.13,.45,.19,.69,.18v.19h-2.98v-.19Z"/><path id="_パス_1542" class="cls-4" d="M84.25,36.76c.35,.2,.58,.56,.62,.96,0,.15-.06,.3-.16,.42-.12,.14-.3,.21-.48,.19-.16,0-.31-.06-.42-.16-.13-.13-.22-.3-.26-.48l-.08-.33c-.04-.2-.14-.38-.31-.51-.18-.1-.39-.15-.59-.14-.52,0-1.01,.25-1.31,.68-.38,.52-.57,1.16-.54,1.8,0,.66,.2,1.31,.59,1.85,.36,.53,.96,.83,1.59,.82,.46,0,.91-.16,1.26-.46,.27-.25,.51-.54,.71-.85l.19,.12c-.21,.47-.48,.91-.82,1.3-.47,.57-1.17,.91-1.91,.91-.72,0-1.4-.31-1.88-.84-.57-.62-.86-1.44-.82-2.28-.02-.89,.3-1.76,.89-2.42,.56-.66,1.39-1.03,2.25-1.01,.52-.01,1.04,.14,1.47,.44"/><path id="_パス_1543" class="cls-4" d="M85.78,42.55c.32,0,.64-.08,.92-.25,.13-.12,.19-.45,.19-.98v-3.25c.01-.21-.01-.41-.06-.61-.06-.18-.24-.3-.43-.28-.05,0-.1,0-.15,.01-.05,0-.18,.04-.41,.11v-.21l.29-.1c.8-.26,1.35-.45,1.66-.59,.08-.04,.16-.07,.24-.08,0,.03,.01,.07,.01,.1v4.89c-.04,.34,.02,.68,.19,.97,.25,.17,.55,.26,.85,.25v.19h-3.31v-.19Zm1.08-9.11c.13-.14,.31-.21,.5-.21,.39,0,.71,.32,.71,.71,0,0,0,0,0,0,0,.19-.07,.37-.21,.5-.27,.28-.72,.28-1,0-.14-.13-.21-.32-.21-.51,0-.19,.07-.37,.2-.5"/><path id="_パス_1544" class="cls-4" d="M90.88,39.74c.8-.45,1.63-.82,2.5-1.11v-.58c.02-.33-.02-.66-.14-.97-.2-.33-.58-.51-.96-.46-.23,0-.46,.06-.66,.18-.19,.09-.31,.29-.31,.5,0,.09,.02,.18,.03,.28,.02,.08,.03,.17,.03,.25,.02,.21-.08,.42-.25,.53-.1,.06-.22,.09-.34,.09-.18,.01-.35-.06-.47-.2-.11-.12-.16-.28-.16-.45,.04-.4,.26-.77,.59-1,.49-.38,1.11-.57,1.73-.52,.71-.08,1.41,.25,1.79,.86,.19,.43,.28,.9,.25,1.37v2.73c0,.18,0,.37,.05,.54,.04,.17,.2,.28,.37,.26,.09,0,.18-.01,.26-.05,.12-.07,.24-.15,.35-.23v.35c-.13,.17-.29,.31-.47,.44-.23,.16-.5,.25-.78,.26-.26,.02-.51-.09-.67-.3-.14-.21-.22-.46-.23-.72-.27,.25-.57,.47-.88,.67-.35,.23-.76,.35-1.18,.37-.38,0-.75-.14-1.01-.41-.28-.27-.44-.65-.43-1.04,.01-.69,.39-1.31,.99-1.65m2.5-.77c-.45,.14-.89,.33-1.29,.57-.55,.25-.92,.77-.98,1.38-.03,.35,.13,.7,.41,.91,.17,.13,.38,.19,.59,.19,.31,0,.6-.09,.86-.25,.25-.12,.4-.37,.41-.64v-2.16Z"/><path id="_パス_1545" class="cls-4" d="M95.86,42.55c.3,0,.6-.09,.86-.26,.18-.21,.26-.49,.23-.76v-6.66c.01-.21-.01-.42-.07-.62-.11-.2-.33-.31-.55-.29-.07,0-.14,0-.21,.02-.07,.01-.17,.03-.28,.06v-.23c.61-.16,1.35-.38,2.21-.65,.03,0,.05,.01,.06,.04,0,.06,.01,.12,0,.18v8.17c-.04,.27,.03,.55,.2,.77,.26,.15,.55,.23,.84,.22v.19h-3.3v-.19Z"/><path id="_パス_1546" class="cls-4" d="M103.84,39.94c.19,.54,.47,1.05,.83,1.5,.5,.62,1.26,.98,2.06,.97,.42,0,.83-.14,1.15-.42,.33-.3,.51-.73,.49-1.18,0-.45-.17-.87-.49-1.19-.42-.36-.87-.68-1.35-.96l-1.19-.74c-.31-.19-.6-.42-.86-.69-.38-.39-.59-.91-.59-1.46-.02-.66,.23-1.29,.7-1.76,.5-.48,1.17-.73,1.86-.7,.39,.01,.78,.09,1.15,.24,.25,.1,.51,.18,.77,.24,.13,.02,.26-.03,.36-.12,.08-.1,.13-.22,.15-.35h.29l.31,2.97h-.33c-.13-.73-.52-1.4-1.09-1.87-.43-.33-.95-.51-1.49-.53-.36,0-.72,.11-1,.34-.28,.23-.44,.57-.43,.94,0,.34,.11,.66,.33,.92,.29,.32,.64,.59,1.01,.81l1.23,.76c.61,.34,1.16,.78,1.62,1.3,.31,.41,.48,.91,.46,1.42,.01,.7-.29,1.38-.83,1.83-.59,.5-1.34,.77-2.12,.74-.46,0-.92-.09-1.35-.24-.26-.1-.53-.19-.81-.24-.13-.02-.26,.04-.33,.15-.06,.1-.09,.21-.11,.32h-.31l-.42-2.97h.33Z"/><path id="_パス_1547" class="cls-4" d="M115.58,37.02c.5,.49,.77,1.18,.72,1.88h-4.33c-.03,.83,.22,1.64,.71,2.3,.38,.46,.94,.72,1.53,.72,.43,.01,.86-.12,1.21-.37,.37-.29,.67-.65,.91-1.06l.24,.08c-.21,.61-.57,1.16-1.04,1.6-.5,.49-1.18,.75-1.88,.74-.78,.04-1.53-.33-1.98-.97-.47-.65-.71-1.43-.7-2.23-.02-.86,.27-1.7,.81-2.36,.51-.65,1.29-1.02,2.11-.99,.63,0,1.23,.23,1.68,.66m-3.26,.52c-.16,.29-.27,.6-.31,.93h2.88c-.02-.35-.11-.7-.26-1.01-.22-.4-.66-.64-1.12-.6-.49-.01-.95,.25-1.18,.69"/><path id="_パス_1548" class="cls-4" d="M116.95,42.52c.29,0,.58-.08,.83-.22,.16-.2,.24-.46,.2-.71v-3.07c.02-.33-.02-.65-.13-.97-.07-.19-.26-.3-.46-.29-.06,0-.12,0-.18,.02-.07,.01-.15,.03-.24,.04v-.22l.8-.28c.27-.1,.46-.16,.56-.2,.23-.09,.46-.18,.7-.29,.03,0,.05,.01,.06,.03,0,.05,.01,.1,0,.14v1.11c.24-.35,.53-.67,.84-.95,.23-.21,.53-.33,.84-.34,.21,0,.41,.07,.57,.21,.27,.27,.29,.7,.05,.99-.1,.12-.26,.19-.42,.19-.2-.01-.38-.1-.52-.24-.11-.12-.25-.21-.41-.24-.16,0-.35,.13-.59,.38-.21,.21-.34,.49-.35,.79v3.07c-.03,.3,.07,.6,.27,.81,.27,.17,.59,.25,.91,.21v.22h-3.36v-.22Z"/><path id="_パス_1549" class="cls-4" d="M124.53,36.42v.21c-.17,.01-.34,.05-.5,.11-.11,.06-.16,.18-.15,.3,0,.07,.01,.14,.03,.21,.02,.07,.06,.16,.11,.29l1.43,3.42,1.21-3.02c.06-.15,.11-.31,.17-.47,.04-.12,.07-.25,.08-.38,0-.17-.1-.32-.25-.38-.13-.05-.27-.07-.41-.08v-.21h1.93v.21c-.18,0-.36,.08-.48,.22-.17,.28-.32,.59-.43,.9l-1.97,4.9c-.02,.06-.05,.12-.09,.18-.02,.03-.06,.05-.1,.05-.05,0-.09-.03-.12-.08-.04-.06-.07-.13-.1-.19l-2.08-4.99c-.11-.31-.29-.6-.54-.82-.15-.09-.32-.15-.5-.16v-.21h2.75Z"/><path id="_パス_1550" class="cls-4" d="M128.78,42.55c.32,0,.64-.08,.92-.25,.13-.12,.19-.45,.19-.98v-3.25c.01-.21-.01-.41-.06-.61-.06-.18-.24-.3-.43-.28-.05,0-.1,0-.15,.01-.05,0-.18,.04-.41,.11v-.21l.29-.1c.8-.26,1.35-.45,1.66-.59,.08-.04,.16-.07,.24-.08,0,.03,.01,.07,.01,.1v4.89c-.04,.34,.02,.68,.19,.97,.25,.17,.55,.26,.85,.25v.19h-3.31v-.19Zm1.08-9.11c.13-.14,.31-.21,.5-.21,.39,0,.71,.32,.71,.71,0,0,0,0,0,0,0,.19-.07,.37-.21,.5-.27,.28-.72,.28-1,0-.14-.13-.21-.32-.21-.51,0-.19,.07-.37,.2-.5"/><path id="_パス_1551" class="cls-4" d="M137.32,36.76c.35,.2,.58,.56,.62,.96,0,.15-.06,.3-.16,.42-.12,.14-.3,.21-.48,.19-.16,0-.31-.06-.42-.16-.13-.13-.22-.3-.26-.48l-.08-.33c-.04-.2-.15-.38-.31-.51-.18-.1-.39-.15-.59-.14-.52,0-1.01,.25-1.31,.68-.38,.52-.57,1.16-.53,1.8,0,.66,.2,1.31,.59,1.85,.36,.53,.96,.84,1.59,.82,.46,0,.91-.16,1.26-.46,.27-.25,.51-.54,.71-.85l.19,.12c-.21,.47-.48,.91-.82,1.3-.47,.57-1.17,.91-1.91,.91-.72,0-1.4-.31-1.88-.84-.57-.62-.86-1.44-.82-2.28-.02-.89,.3-1.76,.89-2.42,.56-.66,1.39-1.03,2.25-1.01,.52-.01,1.04,.14,1.47,.44"/><path id="_パス_1552" class="cls-4" d="M143.46,37.02c.5,.49,.77,1.18,.72,1.88h-4.33c-.03,.83,.22,1.64,.71,2.3,.38,.46,.94,.72,1.53,.72,.43,.01,.85-.12,1.2-.37,.37-.29,.67-.65,.91-1.06l.24,.08c-.21,.61-.57,1.16-1.04,1.6-.5,.49-1.18,.75-1.88,.74-.78,.04-1.53-.33-1.98-.97-.47-.65-.71-1.43-.7-2.23-.02-.86,.27-1.7,.81-2.36,.51-.65,1.29-1.02,2.11-.99,.63,0,1.23,.23,1.68,.66m-3.26,.52c-.16,.29-.27,.6-.31,.93h2.88c-.02-.35-.11-.7-.26-1.01-.22-.4-.66-.64-1.12-.6-.49-.01-.95,.25-1.18,.69"/><path id="_パス_1553" class="cls-4" d="M26.09,28.55c-1.32,4.86-3.52,7.42-5.64,7.42h-4.93c-2.12,0-4.31-2.56-5.64-7.42C4.24,29.58,.92,31.66,.18,33.81c.64,3.59,8.53,6.53,17.81,6.53s17.17-2.95,17.81-6.53c-.74-2.15-4.07-4.23-9.71-5.26"/><path id="_パス_1554" class="cls-4" d="M20.45,0h-4.93c-3.33,0-6.86,6.3-6.86,17.99-.05,3.56,.36,7.11,1.23,10.56,1.32,4.87,3.52,7.42,5.64,7.42h4.93c2.12,0,4.31-2.56,5.64-7.42,.87-3.45,1.28-7,1.23-10.56,0-11.69-3.54-17.99-6.86-17.99m-2.94,34.54c-1.53,0-3.17-2.42-4.25-6.45-.82-3.3-1.22-6.7-1.19-10.1C12.07,8.23,14.94,1.43,17.51,1.43h.21c-2.29,2.47-4.13,8.11-4.13,16.56-.04,3.36,.32,6.72,1.08,9.99,.47,2.4,1.52,4.66,3.05,6.57h-.21Zm2.94,0c-1.56,0-3.22-2.5-4.29-6.64-.79-3.24-1.17-6.58-1.14-9.91,0-9.76,2.86-16.56,5.43-16.56s5.43,6.8,5.43,16.56c.04,3.48-.38,6.95-1.25,10.33-1.07,3.9-2.68,6.23-4.18,6.23"/><path id="_パス_1555" class="cls-4" d="M35.97,36.82v-1.31c-2.19,3.31-9.31,5.67-17.99,5.67S2.19,38.81,0,35.51v1.31H0v3.13c0,3.33,6.3,6.86,17.99,6.86s17.99-3.54,17.99-6.86v-3.13Zm-1.43,3.13c0,2.57-6.8,5.44-16.56,5.44S1.43,42.52,1.43,39.95v-.4c2.47,2.28,8.11,4.13,16.56,4.13s14.09-1.85,16.56-4.13v.4Z"/><path id="_パス_1556" class="cls-3" d="M20.45,34.54c-1.56,0-3.22-2.5-4.29-6.64-.79-3.24-1.17-6.58-1.14-9.91,0-9.76,2.86-16.56,5.43-16.56s5.44,6.8,5.44,16.56c.04,3.48-.38,6.95-1.25,10.33-1.07,3.9-2.68,6.23-4.18,6.23"/><path id="_パス_1557" class="cls-3" d="M34.54,39.95c0,2.57-6.8,5.44-16.56,5.44S1.43,42.52,1.43,39.95v-.4c2.47,2.28,8.11,4.13,16.56,4.13s14.09-1.85,16.56-4.13v.4Z"/></g></g></g></svg>