<svg xmlns="http://www.w3.org/2000/svg" xmlns:xlink="http://www.w3.org/1999/xlink" width="500" zoomAndPan="magnify" viewBox="0 0 375 374.999991" height="500" preserveAspectRatio="xMidYMid meet" version="1.0"><defs><clipPath id="0702b11a70"><path d="M 117 30.847656 L 246 30.847656 L 246 277 L 117 277 Z M 117 30.847656 " clip-rule="nonzero"/></clipPath><clipPath id="5240b6c94e"><path d="M 58.894531 273 L 305 273 L 305 350.152344 L 58.894531 350.152344 Z M 58.894531 273 " clip-rule="nonzero"/></clipPath></defs><path fill="#263921" d="M 236.679688 225.59375 C 227.6875 258.746094 212.695312 276.210938 198.25 276.210938 L 164.652344 276.210938 C 150.207031 276.210938 135.28125 258.746094 126.21875 225.59375 C 87.785156 232.621094 65.164062 246.808594 60.121094 261.476562 C 64.480469 285.964844 118.246094 306.019531 181.484375 306.019531 C 244.722656 306.019531 298.488281 285.894531 302.847656 261.476562 C 297.804688 246.808594 275.113281 232.621094 236.679688 225.59375 " fill-opacity="1" fill-rule="nonzero"/><g clip-path="url(#0702b11a70)"><path fill="#263921" d="M 198.25 30.847656 L 164.652344 30.847656 C 141.960938 30.847656 117.90625 73.820312 117.90625 153.5625 C 117.566406 177.847656 120.359375 202.0625 126.289062 225.59375 C 135.28125 258.816406 150.273438 276.210938 164.722656 276.210938 L 198.316406 276.210938 C 212.761719 276.210938 227.6875 258.746094 236.75 225.59375 C 242.679688 202.0625 245.472656 177.847656 245.132812 153.5625 C 245.132812 73.820312 221.007812 30.847656 198.382812 30.847656 M 178.351562 266.453125 C 167.925781 266.453125 156.75 249.949219 149.390625 222.457031 C 143.800781 199.949219 141.074219 176.753906 141.28125 153.5625 C 141.144531 86.988281 160.699219 40.601562 178.214844 40.601562 L 179.644531 40.601562 C 164.039062 57.453125 151.5 95.921875 151.5 153.5625 C 151.230469 176.480469 153.683594 199.402344 158.859375 221.707031 C 162.0625 238.078125 169.21875 253.496094 179.644531 266.523438 L 178.214844 266.523438 Z M 198.382812 266.453125 C 187.753906 266.453125 176.441406 249.402344 169.152344 221.160156 C 163.765625 199.0625 161.175781 176.277344 161.382812 153.5625 C 161.382812 86.988281 180.871094 40.601562 198.382812 40.601562 C 215.898438 40.601562 235.386719 86.988281 235.386719 153.5625 C 235.660156 177.300781 232.796875 200.96875 226.867188 224.027344 C 219.578125 250.628906 208.605469 266.523438 198.382812 266.523438 " fill-opacity="1" fill-rule="nonzero"/></g><g clip-path="url(#5240b6c94e)"><path fill="#263921" d="M 304.007812 282.007812 L 304.007812 273.070312 C 289.085938 295.648438 240.566406 311.746094 181.417969 311.746094 C 122.265625 311.746094 73.816406 295.582031 58.894531 273.070312 L 58.894531 303.359375 C 58.894531 326.074219 101.824219 350.152344 181.484375 350.152344 C 261.144531 350.152344 304.074219 326.003906 304.074219 303.359375 L 304.074219 282.007812 Z M 294.261719 303.359375 C 294.261719 320.886719 247.925781 340.464844 181.417969 340.464844 C 114.90625 340.464844 68.636719 320.886719 68.636719 303.359375 L 68.636719 300.628906 C 85.46875 316.183594 123.902344 328.800781 181.484375 328.800781 C 239.066406 328.800781 277.5 316.183594 294.332031 300.628906 L 294.332031 303.359375 Z M 294.261719 303.359375 " fill-opacity="1" fill-rule="nonzero"/></g><path fill="#ffffff" d="M 198.25 266.453125 C 187.617188 266.453125 176.304688 249.402344 169.015625 221.160156 C 163.628906 199.0625 161.042969 176.277344 161.246094 153.5625 C 161.246094 86.988281 180.734375 40.601562 198.25 40.601562 C 215.761719 40.601562 235.320312 86.988281 235.320312 153.5625 C 235.589844 177.300781 232.730469 200.96875 226.800781 224.027344 C 219.507812 250.628906 208.539062 266.523438 198.316406 266.523438 " fill-opacity="1" fill-rule="nonzero"/><path fill="#ffffff" d="M 294.261719 303.359375 C 294.261719 320.886719 247.925781 340.464844 181.417969 340.464844 C 114.90625 340.464844 68.636719 320.886719 68.636719 303.359375 L 68.636719 300.628906 C 85.46875 316.183594 123.902344 328.800781 181.484375 328.800781 C 239.066406 328.800781 277.5 316.183594 294.332031 300.628906 L 294.332031 303.359375 Z M 294.261719 303.359375 " fill-opacity="1" fill-rule="nonzero"/></svg>